<svg width="25" height="24" viewBox="0 0 25 24" fill="none" xmlns="http://www.w3.org/2000/svg">
<g clip-path="url(#clip0_1_4898)">
<path fill-rule="evenodd" clip-rule="evenodd" d="M12.4687 3C10.2596 3 8.46875 4.79086 8.46875 7V8C8.46875 10.2091 10.2596 12 12.4687 12C14.6778 12 16.4687 10.2091 16.4687 8V7C16.4687 4.79086 14.6778 3 12.4687 3ZM9.96875 7C9.96875 5.61929 11.088 4.5 12.4687 4.5C13.8494 4.5 14.9687 5.61929 14.9687 7V8C14.9687 9.38071 13.8494 10.5 12.4687 10.5C11.088 10.5 9.96875 9.38071 9.96875 8V7ZM5.97107 19.3686C6.44196 16.2577 9.48678 14.5 12.4709 14.5C15.4545 14.5 18.4997 16.2577 18.9706 19.3686C18.9733 19.3866 18.9712 19.3972 18.9687 19.4048C18.9657 19.4137 18.959 19.4269 18.9446 19.442C18.914 19.4741 18.8581 19.5039 18.7858 19.5039H6.15593C6.08362 19.5039 6.02773 19.4741 5.99713 19.442C5.98269 19.4269 5.97601 19.4137 5.97302 19.4048C5.97049 19.3972 5.96836 19.3865 5.97107 19.3686ZM12.4709 13C9.04196 13 5.10912 15.0404 4.48797 19.1441C4.32499 20.2208 5.22602 21.0039 6.15593 21.0039H18.7858C19.7157 21.0039 20.6167 20.2208 20.4537 19.1441C19.8325 15.0404 15.8993 13 12.4709 13Z" fill="black"/>
</g>
<defs>
<clipPath id="clip0_1_4898">
<rect width="24" height="24" fill="white" transform="translate(0.46875)"/>
</clipPath>
</defs>
</svg>
