<svg width="25" height="24" viewBox="0 0 25 24" fill="none" xmlns="http://www.w3.org/2000/svg">
<g clip-path="url(#clip0_1_4894)">
<path fill-rule="evenodd" clip-rule="evenodd" d="M15.7344 10.5C15.7344 13.2614 13.4958 15.5 10.7344 15.5C7.97295 15.5 5.73438 13.2614 5.73438 10.5C5.73438 7.73858 7.97295 5.5 10.7344 5.5C13.4958 5.5 15.7344 7.73858 15.7344 10.5ZM14.5742 15.7451C13.4984 16.5341 12.1708 17 10.7344 17C7.14453 17 4.23438 14.0899 4.23438 10.5C4.23438 6.91015 7.14453 4 10.7344 4C14.3243 4 17.2344 6.91015 17.2344 10.5C17.2344 11.9364 16.7685 13.264 15.9795 14.3398L19.9434 18.3036C20.3314 18.6917 20.3314 19.3209 19.9434 19.709C19.5553 20.097 18.9261 20.097 18.538 19.709L14.5742 15.7451Z" fill="black"/>
</g>
<defs>
<clipPath id="clip0_1_4894">
<rect width="24" height="24" fill="white" transform="translate(0.234375)"/>
</clipPath>
</defs>
</svg>
