<svg width="25" height="24" viewBox="0 0 25 24" fill="none" xmlns="http://www.w3.org/2000/svg">
<path fill-rule="evenodd" clip-rule="evenodd" d="M8.45312 5.5C6.22248 5.5 4.45312 7.30906 4.45312 9.5C4.45312 10.4282 4.82996 11.4436 5.50182 12.5105C6.17004 13.5716 7.0946 14.6274 8.10439 15.6219C9.51081 17.007 10.9849 18.1879 12.1239 19.1003C12.4265 19.3427 12.7054 19.5661 12.9531 19.7694C13.2008 19.5661 13.4797 19.3427 13.7823 19.1003C14.9213 18.1879 16.3954 17.007 17.8018 15.6219C18.8116 14.6274 19.7362 13.5716 20.4044 12.5105C21.0763 11.4436 21.4531 10.4282 21.4531 9.5C21.4531 7.30898 19.6845 5.5 17.4531 5.5C15.3004 5.5 14.0269 7.20226 13.6793 7.74742C13.342 8.27655 12.5642 8.27653 12.2269 7.74742C11.8793 7.20225 10.6059 5.5 8.45312 5.5ZM2.95312 9.5C2.95312 6.49094 5.38377 4 8.45312 4C10.6846 4 12.178 5.30207 12.9531 6.21581C13.7282 5.30207 15.2217 4 17.4531 4C20.5233 4 22.9531 6.49102 22.9531 9.5C22.9531 10.8218 22.4237 12.1189 21.6737 13.3098C20.92 14.5066 19.9071 15.6539 18.8544 16.6906C17.396 18.1269 15.7611 19.4384 14.6033 20.3672C14.118 20.7565 13.7165 21.0786 13.447 21.3144C13.1642 21.5619 12.742 21.5619 12.4592 21.3144C12.1897 21.0786 11.7882 20.7565 11.3029 20.3672C10.1451 19.4384 8.51025 18.1269 7.05186 16.6906C5.99915 15.6539 4.9862 14.5066 4.23254 13.3098C3.48253 12.1189 2.95312 10.8218 2.95312 9.5Z" fill="#141415"/>
</svg>
